<svg width="145" height="48" viewBox="0 0 145 48" fill="none" xmlns="http://www.w3.org/2000/svg">
<path d="M0 4C0 1.79086 1.79086 0 4 0H141C143.209 0 145 1.79086 145 4V44C145 46.2091 143.209 48 141 48H4C1.79086 48 0 46.2091 0 44V4Z" fill="#F8F8F8"/>
<path d="M89.792 34.4776C88.115 34.4776 86.8878 33.6494 86.7465 32.388L84.795 32.3879C84.9182 34.6886 86.8256 36.144 89.6507 36.144C92.6701 36.144 94.5685 34.6536 94.5685 32.2738C94.5685 30.4133 93.4826 29.3649 90.8689 28.7478L89.4654 28.4036C87.8234 27.9986 87.1522 27.4694 87.1522 26.5701C87.1522 25.4418 88.2031 24.6665 89.7389 24.6665C91.2746 24.6665 92.3255 25.4328 92.4407 26.7021H94.3652C94.3031 24.5075 92.4577 23 89.7659 23C87.0461 23 85.1306 24.5075 85.1306 26.7021C85.1306 28.4747 86.2166 29.567 88.5558 30.1312L90.2067 30.5283C91.8577 30.9335 92.5549 31.5246 92.5549 32.512C92.5549 33.6493 91.3989 34.4776 89.792 34.4776Z" fill="#48484A"/>
<path fill-rule="evenodd" clip-rule="evenodd" d="M51.7228 32.4939H56.5785L57.7436 35.9319H59.8353L55.2361 23.212H53.0992L48.5 35.9319H50.5567L51.7228 32.4939ZM56.0746 30.9074H52.2257L54.1241 25.3276H54.1772L56.0746 30.9074Z" fill="#48484A"/>
<path fill-rule="evenodd" clip-rule="evenodd" d="M65.8918 36.0291C68.223 36.0291 69.7677 34.1775 69.7677 31.2956C69.7677 28.4217 68.2139 26.5612 65.8567 26.5612C65.2614 26.542 64.672 26.6843 64.1513 26.973C63.6305 27.2617 63.1979 27.686 62.8994 28.2007H62.8644V26.6582H61.019V39H62.9254V34.4066H62.9696C63.2549 34.9237 63.6803 35.3502 64.1972 35.6372C64.714 35.9241 65.3013 36.0599 65.8918 36.0291ZM65.3538 28.1837C66.8365 28.1837 67.8082 29.4181 67.8082 31.2956C67.8082 33.1902 66.8365 34.4156 65.3538 34.4156C63.8972 34.4156 62.9174 33.1642 62.9174 31.2956C62.9174 29.4441 63.8972 28.1837 65.3538 28.1837Z" fill="#48484A"/>
<path fill-rule="evenodd" clip-rule="evenodd" d="M79.9907 31.2956C79.9907 34.1775 78.446 36.0291 76.1148 36.0291C75.5243 36.0599 74.937 35.9241 74.4202 35.6371C73.9034 35.3502 73.4779 34.9237 73.1926 34.4066H73.1484V39H71.242V26.6582H73.0873V28.2007H73.1224C73.4209 27.686 73.8535 27.2617 74.3742 26.973C74.895 26.6843 75.4844 26.542 76.0797 26.5612C78.437 26.5612 79.9907 28.4217 79.9907 31.2956ZM78.0312 31.2956C78.0312 29.418 77.0595 28.1837 75.5768 28.1837C74.1202 28.1837 73.1405 29.444 73.1405 31.2956C73.1405 33.1642 74.1202 34.4156 75.5768 34.4156C77.0595 34.4156 78.0312 33.1902 78.0312 31.2956Z" fill="#48484A"/>
<path d="M98.6826 24.4634V26.6581H100.449V28.1656H98.6826V33.2782C98.6826 34.0724 99.0363 34.4425 99.8126 34.4425C100.022 34.4389 100.232 34.4242 100.44 34.3985V35.8969C100.091 35.9621 99.7359 35.9916 99.3809 35.985C97.5005 35.985 96.7672 35.2797 96.7672 33.4812V28.1656H95.4168V26.6581H96.7672V24.4634H98.6826Z" fill="#48484A"/>
<path fill-rule="evenodd" clip-rule="evenodd" d="M105.877 26.5441C103.193 26.5441 101.472 28.3776 101.472 31.2955C101.472 34.2214 103.176 36.047 105.877 36.047C108.579 36.047 110.283 34.2214 110.283 31.2955C110.283 28.3776 108.57 26.5441 105.877 26.5441ZM105.877 28.1126C107.422 28.1126 108.341 29.2939 108.341 31.2955C108.341 33.3052 107.422 34.4775 105.877 34.4775C104.332 34.4775 103.415 33.3052 103.415 31.2955C103.415 29.3029 104.332 28.1126 105.877 28.1126Z" fill="#48484A"/>
<path d="M111.854 26.6583H113.673V28.2368H113.717C113.84 27.7438 114.129 27.3081 114.536 27.003C114.943 26.6979 115.442 26.5419 115.951 26.5613C116.17 26.5605 116.39 26.5843 116.604 26.6323V28.4128C116.327 28.3282 116.037 28.2894 115.747 28.2978C115.47 28.2866 115.194 28.3354 114.938 28.4407C114.682 28.5461 114.451 28.7056 114.263 28.9084C114.074 29.1111 113.931 29.3521 113.845 29.615C113.758 29.878 113.729 30.1565 113.761 30.4315V35.9322H111.854L111.854 26.6583Z" fill="#48484A"/>
<path fill-rule="evenodd" clip-rule="evenodd" d="M121.395 36.047C123.495 36.047 125.137 34.8916 125.394 33.2081L123.584 33.2081C123.414 33.6272 123.114 33.9805 122.728 34.2155C122.341 34.4505 121.889 34.5547 121.439 34.5125C121.096 34.5251 120.754 34.4647 120.436 34.3354C120.119 34.206 119.832 34.0106 119.596 33.7621C119.359 33.5137 119.179 33.2179 119.066 32.8944C118.953 32.5708 118.91 32.227 118.94 31.8857V31.7707H125.5V31.1185C125.5 28.3066 123.884 26.5441 121.314 26.5441C118.702 26.5441 117.016 28.4307 117.016 31.3396C117.016 34.2394 118.693 36.047 121.395 36.047ZM123.593 30.4403H118.949C118.948 30.1303 119.009 29.8232 119.128 29.5368C119.247 29.2503 119.421 28.9902 119.641 28.7713C119.861 28.5525 120.122 28.3793 120.409 28.2618C120.696 28.1443 121.004 28.0847 121.314 28.0865C121.622 28.0799 121.928 28.1369 122.213 28.2539C122.497 28.3709 122.755 28.5454 122.969 28.7664C123.182 28.9874 123.348 29.2502 123.456 29.5382C123.563 29.8263 123.61 30.1334 123.593 30.4403Z" fill="#48484A"/>
<path d="M35.1235 10C35.2383 11.5095 34.7644 13.0046 33.8025 14.1677C33.3418 14.7448 32.7572 15.2091 32.0927 15.5256C31.4281 15.8421 30.7009 16.0026 29.9658 15.995C29.9189 15.2691 30.0145 14.541 30.2471 13.8524C30.4797 13.1637 30.8448 12.528 31.3215 11.9815C32.2964 10.863 33.6539 10.1555 35.1235 10Z" fill="#48484A"/>
<path d="M37.8037 20.9862C37.3153 21.853 37.0525 22.8301 37.0397 23.8267C37.0409 24.9477 37.3697 26.0435 37.985 26.9775C38.6004 27.9116 39.475 28.6425 40.5 29.0792C40.097 30.3979 39.4896 31.6441 38.7002 32.7716C37.64 34.369 36.5285 35.9297 34.7643 35.9585C33.9252 35.978 33.3588 35.735 32.7687 35.4817C32.153 35.2176 31.5116 34.9423 30.5077 34.9423C29.4431 34.9423 28.7729 35.2264 28.1265 35.5005C27.5679 35.7373 27.0271 35.9665 26.265 35.9984C24.5848 36.0611 23.3008 34.2934 22.2021 32.711C20.0061 29.4793 18.2962 23.6037 20.5886 19.6057C21.1178 18.6478 21.8843 17.8443 22.8135 17.2735C23.7427 16.7027 24.8027 16.3841 25.8905 16.3487C26.8434 16.3289 27.7578 16.6989 28.5595 17.0232C29.1725 17.2713 29.7197 17.4927 30.1678 17.4927C30.5616 17.4927 31.0935 17.28 31.7134 17.0322C32.6899 16.6418 33.8846 16.1642 35.1022 16.2929C36.0353 16.3223 36.9487 16.5705 37.77 17.0177C38.5912 17.4649 39.2976 18.0989 39.833 18.8692C38.9902 19.3911 38.292 20.1194 37.8037 20.9862Z" fill="#48484A"/>
<path d="M52.0227 17H50.1392V11.1818H52.0824C52.6525 11.1818 53.142 11.2983 53.5511 11.5312C53.9602 11.7623 54.2737 12.0947 54.4915 12.5284C54.7112 12.9602 54.821 13.4782 54.821 14.0824C54.821 14.6884 54.7102 15.2093 54.4886 15.6449C54.2689 16.0805 53.9508 16.4157 53.5341 16.6506C53.1174 16.8835 52.6136 17 52.0227 17ZM51.017 16.233H51.9744C52.4176 16.233 52.786 16.1496 53.0795 15.983C53.3731 15.8144 53.5928 15.571 53.7386 15.2528C53.8845 14.9328 53.9574 14.5426 53.9574 14.0824C53.9574 13.6259 53.8845 13.2386 53.7386 12.9205C53.5947 12.6023 53.3797 12.3608 53.0938 12.196C52.8078 12.0312 52.4527 11.9489 52.0284 11.9489H51.017V16.233ZM57.6825 17.0881C57.2734 17.0881 56.9164 16.9943 56.6115 16.8068C56.3066 16.6193 56.0698 16.357 55.9013 16.0199C55.7327 15.6828 55.6484 15.2888 55.6484 14.8381C55.6484 14.3854 55.7327 13.9896 55.9013 13.6506C56.0698 13.3116 56.3066 13.0483 56.6115 12.8608C56.9164 12.6733 57.2734 12.5795 57.6825 12.5795C58.0916 12.5795 58.4486 12.6733 58.7536 12.8608C59.0585 13.0483 59.2952 13.3116 59.4638 13.6506C59.6323 13.9896 59.7166 14.3854 59.7166 14.8381C59.7166 15.2888 59.6323 15.6828 59.4638 16.0199C59.2952 16.357 59.0585 16.6193 58.7536 16.8068C58.4486 16.9943 58.0916 17.0881 57.6825 17.0881ZM57.6854 16.375C57.9505 16.375 58.1702 16.3049 58.3445 16.1648C58.5187 16.0246 58.6475 15.8381 58.7308 15.6051C58.8161 15.3722 58.8587 15.1155 58.8587 14.8352C58.8587 14.5568 58.8161 14.3011 58.7308 14.0682C58.6475 13.8333 58.5187 13.6449 58.3445 13.5028C58.1702 13.3608 57.9505 13.2898 57.6854 13.2898C57.4183 13.2898 57.1967 13.3608 57.0206 13.5028C56.8464 13.6449 56.7166 13.8333 56.6314 14.0682C56.5481 14.3011 56.5064 14.5568 56.5064 14.8352C56.5064 15.1155 56.5481 15.3722 56.6314 15.6051C56.7166 15.8381 56.8464 16.0246 57.0206 16.1648C57.1967 16.3049 57.4183 16.375 57.6854 16.375ZM61.478 17L60.1939 12.6364H61.0717L61.9268 15.8409H61.9695L62.8274 12.6364H63.7053L64.5575 15.8267H64.6001L65.4496 12.6364H66.3274L65.0462 17H64.1797L63.2933 13.8494H63.228L62.3416 17H61.478ZM67.983 14.4091V17H67.1335V12.6364H67.9489V13.3466H68.0028C68.1032 13.1155 68.2604 12.9299 68.4744 12.7898C68.6903 12.6496 68.9621 12.5795 69.2898 12.5795C69.5871 12.5795 69.8475 12.642 70.071 12.767C70.2945 12.8902 70.4678 13.0739 70.5909 13.3182C70.714 13.5625 70.7756 13.8646 70.7756 14.2244V17H69.9261V14.3267C69.9261 14.0104 69.8438 13.7633 69.679 13.5852C69.5142 13.4053 69.2879 13.3153 69 13.3153C68.803 13.3153 68.6278 13.358 68.4744 13.4432C68.3229 13.5284 68.2027 13.6534 68.1136 13.8182C68.0265 13.9811 67.983 14.178 67.983 14.4091ZM72.7642 11.1818V17H71.9148V11.1818H72.7642ZM75.745 17.0881C75.3359 17.0881 74.9789 16.9943 74.674 16.8068C74.3691 16.6193 74.1323 16.357 73.9638 16.0199C73.7952 15.6828 73.7109 15.2888 73.7109 14.8381C73.7109 14.3854 73.7952 13.9896 73.9638 13.6506C74.1323 13.3116 74.3691 13.0483 74.674 12.8608C74.9789 12.6733 75.3359 12.5795 75.745 12.5795C76.1541 12.5795 76.5111 12.6733 76.8161 12.8608C77.121 13.0483 77.3577 13.3116 77.5263 13.6506C77.6948 13.9896 77.7791 14.3854 77.7791 14.8381C77.7791 15.2888 77.6948 15.6828 77.5263 16.0199C77.3577 16.357 77.121 16.6193 76.8161 16.8068C76.5111 16.9943 76.1541 17.0881 75.745 17.0881ZM75.7479 16.375C76.013 16.375 76.2327 16.3049 76.407 16.1648C76.5812 16.0246 76.71 15.8381 76.7933 15.6051C76.8786 15.3722 76.9212 15.1155 76.9212 14.8352C76.9212 14.5568 76.8786 14.3011 76.7933 14.0682C76.71 13.8333 76.5812 13.6449 76.407 13.5028C76.2327 13.3608 76.013 13.2898 75.7479 13.2898C75.4808 13.2898 75.2592 13.3608 75.0831 13.5028C74.9089 13.6449 74.7791 13.8333 74.6939 14.0682C74.6106 14.3011 74.5689 14.5568 74.5689 14.8352C74.5689 15.1155 74.6106 15.3722 74.6939 15.6051C74.7791 15.8381 74.9089 16.0246 75.0831 16.1648C75.2592 16.3049 75.4808 16.375 75.7479 16.375ZM79.9972 17.0966C79.7206 17.0966 79.4706 17.0455 79.2472 16.9432C79.0237 16.839 78.8466 16.6884 78.7159 16.4915C78.5871 16.2945 78.5227 16.053 78.5227 15.767C78.5227 15.5208 78.5701 15.3182 78.6648 15.1591C78.7595 15 78.8873 14.8741 79.0483 14.7812C79.2093 14.6884 79.3892 14.6184 79.5881 14.571C79.7869 14.5237 79.9896 14.4877 80.196 14.4631C80.4574 14.4328 80.6695 14.4081 80.8324 14.3892C80.9953 14.3684 81.1136 14.3352 81.1875 14.2898C81.2614 14.2443 81.2983 14.1705 81.2983 14.0682V14.0483C81.2983 13.8002 81.2282 13.608 81.0881 13.4716C80.9498 13.3352 80.7434 13.267 80.4688 13.267C80.1828 13.267 79.9574 13.3305 79.7926 13.4574C79.6297 13.5824 79.517 13.7216 79.4545 13.875L78.6562 13.6932C78.7509 13.428 78.8892 13.214 79.071 13.0511C79.2547 12.8864 79.4659 12.767 79.7045 12.6932C79.9432 12.6174 80.1941 12.5795 80.4574 12.5795C80.6316 12.5795 80.8163 12.6004 81.0114 12.642C81.2083 12.6818 81.392 12.7557 81.5625 12.8636C81.7348 12.9716 81.8759 13.1259 81.9858 13.3267C82.0956 13.5256 82.1506 13.7841 82.1506 14.1023V17H81.321V16.4034H81.2869C81.232 16.5133 81.1496 16.6212 81.0398 16.7273C80.9299 16.8333 80.7888 16.9214 80.6165 16.9915C80.4441 17.0616 80.2377 17.0966 79.9972 17.0966ZM80.1818 16.4148C80.4167 16.4148 80.6174 16.3684 80.7841 16.2756C80.9527 16.1828 81.0805 16.0616 81.1676 15.9119C81.2566 15.7604 81.3011 15.5985 81.3011 15.4261V14.8636C81.2708 14.8939 81.2121 14.9223 81.125 14.9489C81.0398 14.9735 80.9422 14.9953 80.8324 15.0142C80.7225 15.0312 80.6155 15.0473 80.5114 15.0625C80.4072 15.0758 80.3201 15.0871 80.25 15.0966C80.0852 15.1174 79.9347 15.1525 79.7983 15.2017C79.6638 15.2509 79.5559 15.322 79.4744 15.4148C79.3949 15.5057 79.3551 15.6269 79.3551 15.7784C79.3551 15.9886 79.4328 16.1477 79.5881 16.2557C79.7434 16.3617 79.9413 16.4148 80.1818 16.4148ZM84.9155 17.0852C84.5632 17.0852 84.2488 16.9953 83.9723 16.8153C83.6977 16.6335 83.4818 16.375 83.3246 16.0398C83.1693 15.7027 83.0916 15.2983 83.0916 14.8267C83.0916 14.3551 83.1702 13.9517 83.3274 13.6165C83.4865 13.2812 83.7043 13.0246 83.9808 12.8466C84.2573 12.6686 84.5708 12.5795 84.9212 12.5795C85.192 12.5795 85.4098 12.625 85.5746 12.7159C85.7412 12.8049 85.87 12.9091 85.9609 13.0284C86.0537 13.1477 86.1257 13.2528 86.1768 13.3438H86.228V11.1818H87.0774V17H86.2479V16.321H86.1768C86.1257 16.4138 86.0518 16.5199 85.9553 16.6392C85.8606 16.7585 85.7299 16.8627 85.5632 16.9517C85.3965 17.0407 85.1806 17.0852 84.9155 17.0852ZM85.103 16.3608C85.3473 16.3608 85.5537 16.2964 85.7223 16.1676C85.8928 16.0369 86.0215 15.8561 86.1087 15.625C86.1977 15.3939 86.2422 15.125 86.2422 14.8182C86.2422 14.5152 86.1986 14.25 86.1115 14.0227C86.0244 13.7955 85.8965 13.6184 85.728 13.4915C85.5594 13.3646 85.3511 13.3011 85.103 13.3011C84.8473 13.3011 84.6342 13.3674 84.4638 13.5C84.2933 13.6326 84.1645 13.8134 84.0774 14.0426C83.9922 14.2718 83.9496 14.5303 83.9496 14.8182C83.9496 15.1098 83.9931 15.3722 84.0803 15.6051C84.1674 15.8381 84.2962 16.0227 84.4666 16.1591C84.639 16.2936 84.8511 16.3608 85.103 16.3608ZM92.245 17.0881C91.8359 17.0881 91.4789 16.9943 91.174 16.8068C90.8691 16.6193 90.6323 16.357 90.4638 16.0199C90.2952 15.6828 90.2109 15.2888 90.2109 14.8381C90.2109 14.3854 90.2952 13.9896 90.4638 13.6506C90.6323 13.3116 90.8691 13.0483 91.174 12.8608C91.4789 12.6733 91.8359 12.5795 92.245 12.5795C92.6541 12.5795 93.0111 12.6733 93.3161 12.8608C93.621 13.0483 93.8577 13.3116 94.0263 13.6506C94.1948 13.9896 94.2791 14.3854 94.2791 14.8381C94.2791 15.2888 94.1948 15.6828 94.0263 16.0199C93.8577 16.357 93.621 16.6193 93.3161 16.8068C93.0111 16.9943 92.6541 17.0881 92.245 17.0881ZM92.2479 16.375C92.513 16.375 92.7327 16.3049 92.907 16.1648C93.0812 16.0246 93.21 15.8381 93.2933 15.6051C93.3786 15.3722 93.4212 15.1155 93.4212 14.8352C93.4212 14.5568 93.3786 14.3011 93.2933 14.0682C93.21 13.8333 93.0812 13.6449 92.907 13.5028C92.7327 13.3608 92.513 13.2898 92.2479 13.2898C91.9808 13.2898 91.7592 13.3608 91.5831 13.5028C91.4089 13.6449 91.2791 13.8333 91.1939 14.0682C91.1106 14.3011 91.0689 14.5568 91.0689 14.8352C91.0689 15.1155 91.1106 15.3722 91.1939 15.6051C91.2791 15.8381 91.4089 16.0246 91.5831 16.1648C91.7592 16.3049 91.9808 16.375 92.2479 16.375ZM96.0767 14.4091V17H95.2273V12.6364H96.0426V13.3466H96.0966C96.197 13.1155 96.3542 12.9299 96.5682 12.7898C96.7841 12.6496 97.0559 12.5795 97.3835 12.5795C97.6809 12.5795 97.9413 12.642 98.1648 12.767C98.3883 12.8902 98.5616 13.0739 98.6847 13.3182C98.8078 13.5625 98.8693 13.8646 98.8693 14.2244V17H98.0199V14.3267C98.0199 14.0104 97.9375 13.7633 97.7727 13.5852C97.608 13.4053 97.3816 13.3153 97.0938 13.3153C96.8968 13.3153 96.7216 13.358 96.5682 13.4432C96.4167 13.5284 96.2964 13.6534 96.2074 13.8182C96.1203 13.9811 96.0767 14.178 96.0767 14.4091ZM104.163 12.6364V13.3182H101.779V12.6364H104.163ZM102.418 11.5909H103.268V15.7188C103.268 15.8835 103.292 16.0076 103.342 16.0909C103.391 16.1723 103.454 16.2282 103.532 16.2585C103.612 16.2869 103.698 16.3011 103.79 16.3011C103.859 16.3011 103.918 16.2964 103.969 16.2869C104.021 16.2775 104.06 16.2699 104.089 16.2642L104.242 16.9659C104.193 16.9848 104.123 17.0038 104.032 17.0227C103.941 17.0436 103.827 17.0549 103.691 17.0568C103.468 17.0606 103.259 17.0208 103.066 16.9375C102.873 16.8542 102.717 16.7254 102.597 16.5511C102.478 16.3769 102.418 16.1581 102.418 15.8949V11.5909ZM106.045 14.4091V17H105.196V11.1818H106.034V13.3466H106.088C106.19 13.1117 106.347 12.9252 106.557 12.7869C106.767 12.6487 107.042 12.5795 107.381 12.5795C107.68 12.5795 107.941 12.6411 108.165 12.7642C108.39 12.8873 108.564 13.071 108.688 13.3153C108.812 13.5578 108.875 13.8608 108.875 14.2244V17H108.026V14.3267C108.026 14.0066 107.943 13.7585 107.778 13.5824C107.614 13.4044 107.384 13.3153 107.091 13.3153C106.89 13.3153 106.71 13.358 106.551 13.4432C106.394 13.5284 106.27 13.6534 106.179 13.8182C106.09 13.9811 106.045 14.178 106.045 14.4091ZM111.889 17.0881C111.459 17.0881 111.089 16.9962 110.778 16.8125C110.47 16.6269 110.231 16.3665 110.062 16.0312C109.896 15.6941 109.812 15.2992 109.812 14.8466C109.812 14.3996 109.896 14.0057 110.062 13.6648C110.231 13.3239 110.466 13.0578 110.767 12.8665C111.07 12.6752 111.424 12.5795 111.83 12.5795C112.076 12.5795 112.314 12.6203 112.545 12.7017C112.777 12.7831 112.984 12.911 113.168 13.0852C113.351 13.2595 113.496 13.4858 113.602 13.7642C113.708 14.0407 113.761 14.3769 113.761 14.7727V15.0739H110.293V14.4375H112.929C112.929 14.214 112.884 14.0161 112.793 13.8438C112.702 13.6695 112.574 13.5322 112.409 13.4318C112.246 13.3314 112.055 13.2812 111.835 13.2812C111.597 13.2812 111.388 13.34 111.21 13.4574C111.034 13.5729 110.898 13.7244 110.801 13.9119C110.706 14.0975 110.659 14.2992 110.659 14.517V15.0142C110.659 15.3059 110.71 15.554 110.812 15.7585C110.917 15.9631 111.062 16.1193 111.247 16.2273C111.433 16.3333 111.65 16.3864 111.898 16.3864C112.059 16.3864 112.205 16.3636 112.338 16.3182C112.471 16.2708 112.585 16.2008 112.682 16.108C112.778 16.0152 112.852 15.9006 112.903 15.7642L113.707 15.9091C113.643 16.1458 113.527 16.3532 113.361 16.5312C113.196 16.7074 112.989 16.8447 112.739 16.9432C112.491 17.0398 112.207 17.0881 111.889 17.0881Z" fill="#48484A"/>
</svg>
